<svg width="102" height="102" viewBox="0 0 102 102" fill="none" xmlns="http://www.w3.org/2000/svg">
<circle cx="51" cy="51" r="51" fill="#EF5350"/>
<path fill-rule="evenodd" clip-rule="evenodd" d="M50.6678 24.4844L26 33.2734L29.7695 65.9102L50.6678 77.5117L71.8983 65.7539L76 33.1172L50.6678 24.4844ZM35.3354 64.8758L50.7063 30.6766L66.8196 64.9735L61.3314 64.8758L57.9525 57.0632H44.1635L41.0774 64.7782L35.3354 64.8758ZM55.9407 52.4929L50.7455 41.6337L46.175 52.4929H55.9407Z" fill="white"/>
<path fill-rule="evenodd" clip-rule="evenodd" d="M50.668 24.4844L76.0001 33.1172L71.8984 65.7735L50.668 77.5117V57.0632H57.9525L61.3314 64.8758L66.8196 64.9735L50.7063 30.6766L50.668 30.7619V24.4844ZM50.668 52.4929V41.8179L50.7455 41.6337L55.9407 52.4929H50.668Z" fill="#EDDEDE"/>
</svg>
