<svg width="72" height="72" viewBox="0 0 72 72" fill="none" xmlns="http://www.w3.org/2000/svg">
<path d="M60.4927 64.0002C59.7918 64.0011 59.1044 63.8081 58.5062 63.4427C57.908 63.0773 57.4224 62.5536 57.1032 61.9296L35.7819 20.2459L19.8313 52.4053L34.6289 45.9737C35.5533 45.5711 36.5998 45.5519 37.5384 45.9204C38.477 46.2889 39.2308 47.015 39.6343 47.939C39.8335 48.3963 39.9406 48.8884 39.9494 49.3872C39.9583 49.8859 39.8688 50.3815 39.6859 50.8456C39.5031 51.3096 39.2304 51.7331 38.8837 52.0918C38.537 52.4504 38.1231 52.7372 37.6655 52.9357L13.3216 63.5173C12.6068 63.8279 11.8138 63.9118 11.0498 63.7574C10.2858 63.603 9.58761 63.2179 9.04947 62.6541C8.51231 62.0905 8.16156 61.3752 8.04484 60.6055C7.92811 59.8357 8.05103 59.0487 8.39697 58.3512L32.3246 10.1122C32.6383 9.48197 33.1208 8.95124 33.7184 8.57912C34.3159 8.20701 35.0051 8.00813 35.709 8.00464H35.7317C36.4321 8.00441 37.1191 8.19754 37.7168 8.56275C38.3144 8.92796 38.7996 9.45106 39.1189 10.0744L63.8779 58.4802C64.1048 58.9244 64.2419 59.4089 64.2814 59.9061C64.3209 60.4033 64.2621 60.9034 64.1082 61.3778C63.9543 61.8522 63.7084 62.2916 63.3846 62.6709C63.0608 63.0502 62.6653 63.362 62.2209 63.5884C61.6865 63.8619 61.095 64.0046 60.4946 64.0046" fill="#0092FF"/>
</svg>
