<svg width="101" height="100" viewBox="0 0 101 100" fill="none" xmlns="http://www.w3.org/2000/svg">
<circle cx="50.332" cy="50" r="50" fill="#96A5B8"/>
<path fill-rule="evenodd" clip-rule="evenodd" d="M27.2675 27.6851H28.5835V50.512C28.5835 52.2893 29.2895 53.9938 30.5463 55.2506C31.803 56.5073 33.5076 57.2133 35.2849 57.2133H64.8131C66.5904 57.2133 68.2949 56.5073 69.5517 55.2506C70.8084 53.9938 71.5144 52.2893 71.5144 50.512V27.6851H72.8305C73.0183 27.7051 73.2081 27.6853 73.3878 27.6272C73.5674 27.569 73.7328 27.4737 73.8732 27.3474C74.0136 27.2212 74.1259 27.0668 74.2028 26.8943C74.2796 26.7219 74.3193 26.5351 74.3193 26.3463C74.3193 26.1575 74.2796 25.9708 74.2028 25.7983C74.1259 25.6258 74.0136 25.4715 73.8732 25.3452C73.7328 25.219 73.5674 25.1236 73.3878 25.0655C73.2081 25.0073 73.0183 24.9876 72.8305 25.0076H27.2675C27.0797 24.9876 26.8898 25.0073 26.7102 25.0655C26.5305 25.1236 26.3652 25.219 26.2247 25.3452C26.0843 25.4715 25.9721 25.6258 25.8952 25.7983C25.8183 25.9708 25.7786 26.1575 25.7786 26.3463C25.7786 26.5351 25.8183 26.7219 25.8952 26.8943C25.9721 27.0668 26.0843 27.2212 26.2247 27.3474C26.3652 27.4737 26.5305 27.569 26.7102 27.6272C26.8898 27.6853 27.0797 27.7051 27.2675 27.6851ZM68.8369 27.6851V50.512C68.833 51.5779 68.4077 52.5991 67.654 53.3529C66.9002 54.1066 65.8791 54.5318 64.8131 54.5358H35.2849C34.2189 54.5318 33.1977 54.1066 32.444 53.3529C31.6902 52.5991 31.265 51.5779 31.261 50.512V27.6851H68.8369ZM72.2406 69.1889C72.7067 68.3031 72.9458 67.3156 72.9364 66.3147C72.9786 65.4452 72.8438 64.5762 72.5402 63.7603C72.2365 62.9445 71.7703 62.1988 71.1699 61.5685C70.5694 60.9382 69.8472 60.4364 69.0471 60.0935C68.2469 59.7507 67.3855 59.5739 66.5149 59.5739C65.6444 59.5739 64.783 59.7507 63.9828 60.0935C63.1826 60.4364 62.4604 60.9382 61.86 61.5685C61.2595 62.1988 60.7934 62.9445 60.4897 63.7603C60.186 64.5762 60.0512 65.4452 60.0934 66.3147C60.0885 67.315 60.3273 68.3016 60.7893 69.1889C59.8388 69.6325 58.9854 70.2597 58.2782 71.0344C57.5795 70.2568 56.7304 69.6289 55.7822 69.1889C56.2442 68.3016 56.4831 67.315 56.4781 66.3147C56.4781 64.6096 55.8007 62.9743 54.595 61.7687C53.3893 60.563 51.7541 59.8856 50.049 59.8856C48.3439 59.8856 46.7087 60.563 45.503 61.7687C44.2973 62.9743 43.62 64.6096 43.62 66.3147C43.615 67.315 43.8538 68.3016 44.3158 69.1889C43.3652 69.6248 42.5153 70.2532 41.8198 71.0344C41.1036 70.2593 40.2462 69.6278 39.2936 69.1737C39.7572 68.2925 39.9963 67.3104 39.9894 66.3147C39.9894 65.4724 39.8235 64.6384 39.5012 63.8602C39.1789 63.082 38.7064 62.3749 38.1108 61.7794C37.5152 61.1838 36.8082 60.7113 36.03 60.389C35.2518 60.0667 34.4178 59.9008 33.5755 59.9008C32.7332 59.9008 31.8992 60.0667 31.121 60.389C30.3428 60.7113 29.6358 61.1838 29.0402 61.7794C28.4446 62.3749 27.9721 63.082 27.6498 63.8602C27.3275 64.6384 27.1616 65.4724 27.1616 66.3147C27.1496 67.311 27.389 68.2943 27.8574 69.1737C26.7918 69.5842 25.8641 70.2878 25.1815 71.2033C24.4989 72.1188 24.0893 73.2088 24 74.3472C24 74.7043 24.1418 75.0467 24.3943 75.2992C24.6468 75.5517 24.9893 75.6935 25.3463 75.6935C25.7034 75.6935 26.0458 75.5517 26.2983 75.2992C26.5508 75.0467 26.6926 74.7043 26.6926 74.3472C26.6926 73.2581 27.7818 72.0781 29.5971 71.3218C30.862 70.8172 32.2137 70.5653 33.5755 70.5806C34.9373 70.5653 36.289 70.8172 37.554 71.3218C39.3692 72.0479 40.4735 73.2278 40.4735 74.3472C40.4535 74.535 40.4732 74.7248 40.5314 74.9045C40.5896 75.0841 40.6849 75.2495 40.8111 75.3899C40.9374 75.5303 41.0918 75.6426 41.2642 75.7195C41.4367 75.7963 41.6234 75.836 41.8123 75.836C42.0011 75.836 42.1878 75.7963 42.3603 75.7195C42.5327 75.6426 42.6871 75.5303 42.8134 75.3899C42.9396 75.2495 43.0349 75.0841 43.0931 74.9045C43.1513 74.7248 43.171 74.535 43.151 74.3472C43.151 73.2581 44.2553 72.0781 46.0554 71.3218C48.6195 70.3543 51.4482 70.3543 54.0123 71.3218C55.8125 72.063 56.9167 73.2429 56.9167 74.3472C56.8968 74.535 56.9165 74.7248 56.9747 74.9045C57.0328 75.0841 57.1281 75.2495 57.2544 75.3899C57.3806 75.5303 57.535 75.6426 57.7075 75.7195C57.88 75.7963 58.0667 75.836 58.2555 75.836C58.4443 75.836 58.631 75.7963 58.8035 75.7195C58.976 75.6426 59.1304 75.5303 59.2566 75.3899C59.3829 75.2495 59.4782 75.0841 59.5363 74.9045C59.5945 74.7248 59.6142 74.535 59.5943 74.3472C59.5943 73.2581 60.6985 72.0781 62.4987 71.3218C63.7673 70.8314 65.1171 70.5851 66.4771 70.5957C67.8325 70.5818 69.178 70.8283 70.4404 71.3218C72.2557 72.063 73.3449 73.2429 73.3449 74.3472C73.3449 74.7043 73.4867 75.0467 73.7392 75.2992C73.9917 75.5517 74.3341 75.6935 74.6912 75.6935C75.0482 75.6935 75.3907 75.5517 75.6432 75.2992C75.8957 75.0467 76.0375 74.7043 76.0375 74.3472C75.9506 73.2183 75.5488 72.1363 74.8775 71.2244C74.2063 70.3126 73.2927 69.6073 72.2406 69.1889ZM33.5755 67.9333C32.5018 67.9271 31.4309 68.0438 30.3837 68.2812C29.9999 67.6979 29.7997 67.0129 29.8088 66.3147C29.8088 65.3237 30.2025 64.3734 30.9032 63.6726C31.6039 62.9719 32.5543 62.5783 33.5453 62.5783C34.5362 62.5783 35.4866 62.9719 36.1873 63.6726C36.888 64.3734 37.2817 65.3237 37.2817 66.3147C37.2908 67.0129 37.0906 67.6979 36.7068 68.2812C35.6792 68.0491 34.629 67.9324 33.5755 67.9333ZM50.049 67.9333C48.9804 67.9302 47.9149 68.0469 46.8723 68.2812C46.4951 67.6949 46.2954 67.0119 46.2975 66.3147C46.293 65.7321 46.4242 65.1566 46.6808 64.6335C46.9373 64.1105 47.3122 63.6544 47.7756 63.3014C48.239 62.9484 48.7783 62.7082 49.3507 62.5998C49.9231 62.4913 50.5128 62.5177 51.0733 62.6768C51.6337 62.8359 52.1494 63.1233 52.5794 63.5162C53.0095 63.9092 53.3422 64.3969 53.551 64.9407C53.7599 65.4846 53.8392 66.0696 53.7828 66.6494C53.7263 67.2292 53.5356 67.7879 53.2257 68.2812C52.183 68.0478 51.1175 67.9311 50.049 67.9333ZM66.5225 67.9333C65.454 67.9311 64.3885 68.0478 63.3458 68.2812C62.9686 67.6949 62.7689 67.0119 62.771 66.3147C62.8315 65.3629 63.2523 64.4698 63.9478 63.8172C64.6432 63.1645 65.5612 62.8013 66.5149 62.8013C67.4687 62.8013 68.3866 63.1645 69.0821 63.8172C69.7776 64.4698 70.1984 65.3629 70.2589 66.3147C70.2681 67.0129 70.0679 67.6979 69.6841 68.2812C68.6468 68.0461 67.5861 67.9294 66.5225 67.9333ZM41.3315 40.9669L37.3833 38.9852C37.1316 38.8835 36.917 38.7073 36.7683 38.4802C36.6196 38.253 36.5439 37.9859 36.5513 37.7145C36.568 37.4562 36.658 37.208 36.8107 36.9991C36.9634 36.7901 37.1726 36.629 37.4136 36.5346L49.5153 31.8452C49.8266 31.7237 50.1722 31.7237 50.4835 31.8452L62.5852 36.5346C62.8262 36.629 63.0353 36.7901 63.1881 36.9991C63.3408 37.208 63.4308 37.4562 63.4475 37.7145C63.4624 37.9757 63.4001 38.2356 63.2683 38.4616C63.1365 38.6876 62.941 38.8697 62.7062 38.9852L58.758 40.9669V46.1555C58.6792 46.8927 58.3845 47.5903 57.9108 48.1608C57.4372 48.7313 56.8058 49.1493 56.0956 49.3625C54.1813 50.1646 52.1199 50.5563 50.0448 50.5121C47.9696 50.5563 45.9083 50.1646 43.9939 49.3625C43.2838 49.1493 42.6523 48.7313 42.1787 48.1608C41.7051 47.5903 41.4104 46.8927 41.3315 46.1555V40.9669ZM56.0956 46.1706V42.9485L56.0654 42.2981L55.3393 42.646L51.5272 44.552L50.6347 45.0058C50.4485 45.1051 50.2407 45.1571 50.0296 45.1571C49.8186 45.1571 49.6108 45.1051 49.4246 45.0058L48.5321 44.552L44.72 42.646L43.9939 42.2981V46.1706C44.1452 46.6547 46.3991 47.8346 50.0448 47.8346C53.6904 47.8346 55.8687 46.6849 56.0956 46.1706ZM58.8034 37.9263L50.0448 34.5227L41.2861 37.9263L49.0766 41.8291L50.0448 42.3132L51.0129 41.8291L58.8034 37.9263Z" fill="white"/>
</svg>
