<svg width="102" height="102" viewBox="0 0 102 102" fill="none" xmlns="http://www.w3.org/2000/svg">
<circle cx="51" cy="51" r="51" fill="#8C26B7"/>
<path fill-rule="evenodd" clip-rule="evenodd" d="M35.0133 74H39.5033C39.9003 74 40.281 73.842 40.5616 73.5607C40.8423 73.2794 41 72.8978 41 72.5C41 72.1022 40.8423 71.7206 40.5616 71.4393C40.281 71.158 39.9003 71 39.5033 71H35.0133C34.6164 71 34.2357 70.842 33.955 70.5607C33.6743 70.2794 33.5166 69.8978 33.5166 69.5V59.78C33.5166 58.2281 33.1992 56.6927 32.5839 55.2686C31.9687 53.8445 31.0687 52.5619 29.9396 51.5C31.0704 50.4426 31.9717 49.163 32.5871 47.7409C33.2026 46.3189 33.519 44.785 33.5166 43.235V33.41C33.5166 33.036 33.6649 32.6774 33.9287 32.413C34.1925 32.1486 34.5504 32 34.9235 32H39.5033C39.9003 32 40.281 31.842 40.5616 31.5607C40.8423 31.2794 41 30.8978 41 30.5C41 30.1022 40.8423 29.7206 40.5616 29.4393C40.281 29.158 39.9003 29 39.5033 29H34.9235C33.7565 29 32.6373 29.4646 31.8121 30.2917C30.9869 31.1187 30.5233 32.2404 30.5233 33.41V43.235C30.5239 44.6368 30.1701 46.0159 29.4949 47.2435C28.8196 48.4711 27.8449 49.5072 26.6619 50.255C26.4582 50.3922 26.2912 50.5775 26.1758 50.7947C26.0604 51.0118 26 51.254 26 51.5C26 51.746 26.0604 51.9882 26.1758 52.2053C26.2912 52.4225 26.4582 52.6078 26.6619 52.745L27.0061 53C28.0891 53.7674 28.9733 54.7831 29.5851 55.9625C30.1969 57.1419 30.5186 58.4508 30.5233 59.78V69.5C30.5233 70.6935 30.9964 71.8381 31.8384 72.682C32.6804 73.5259 33.8225 74 35.0133 74ZM66.9997 74H62.4999C62.1021 74 61.7206 73.842 61.4393 73.5607C61.158 73.2794 61 72.8978 61 72.5C61 72.1022 61.158 71.7206 61.4393 71.4393C61.7206 71.158 62.1021 71 62.4999 71H66.9997C67.3975 71 67.779 70.842 68.0603 70.5607C68.3416 70.2794 68.4996 69.8978 68.4996 69.5V59.81C68.4946 58.2529 68.8104 56.7116 69.4271 55.2819C70.0439 53.8522 70.9484 52.5648 72.0844 51.5C70.9548 50.446 70.0538 49.1713 69.4371 47.7547C68.8204 46.3381 68.5014 44.81 68.4996 43.265V33.41C68.4996 33.2248 68.4631 33.0415 68.3923 32.8704C68.3214 32.6993 68.2176 32.5439 68.0867 32.413C67.9557 32.282 67.8003 32.1782 67.6292 32.1073C67.4582 32.0365 67.2748 32 67.0897 32H62.4999C62.1021 32 61.7206 31.842 61.4393 31.5607C61.158 31.2794 61 30.8978 61 30.5C61 30.1022 61.158 29.7206 61.4393 29.4393C61.7206 29.158 62.1021 29 62.4999 29H67.0897C67.6688 29 68.2422 29.1141 68.7772 29.3357C69.3122 29.5573 69.7984 29.8822 70.2079 30.2917C70.6173 30.7012 70.9422 31.1873 71.1638 31.7224C71.3854 32.2574 71.4995 32.8309 71.4995 33.41V43.28C71.4981 44.6656 71.8432 46.0295 72.5033 47.2477C73.1635 48.4659 74.1177 49.4997 75.2793 50.255C75.4939 50.3856 75.6724 50.568 75.7982 50.7856C75.924 51.0031 75.9931 51.2488 75.9992 51.5C76.0071 51.7442 75.9552 51.9867 75.848 52.2063C75.7408 52.4259 75.5816 52.616 75.3843 52.76L75.0693 52.985C73.9695 53.7519 73.0708 54.7726 72.4493 55.9607C71.8279 57.1488 71.5021 58.4692 71.4995 59.81V69.5C71.4995 70.6935 71.0254 71.8381 70.1815 72.682C69.3376 73.5259 68.1931 74 66.9997 74ZM48.4673 45.001C47.512 45.0136 46.6893 45.2009 45.8812 45.6035C43.8173 46.6316 42.6256 48.7965 42.6256 51.5244C42.6256 54.2584 43.798 56.3592 45.8689 57.3419C46.4284 57.6073 46.9892 57.7518 47.8406 57.853C47.9075 57.8557 47.9738 57.8587 48.0396 57.8617C48.3971 57.878 48.7397 57.8935 49.0941 57.853C49.9455 57.7518 50.5063 57.6073 51.0657 57.3419C53.1369 56.3592 54.3092 54.2586 54.3092 51.5244C54.3092 48.7965 53.1173 46.6316 51.0536 45.6035C50.2453 45.2009 49.4229 45.0136 48.4673 45.001ZM49.2889 46.924C50.5281 47.2542 51.4272 48.3722 51.7716 50.0031C52.0138 51.1485 51.9477 52.4719 51.6013 53.5143C51.0618 55.1377 49.8906 56.0544 48.4673 56.0397C47.0441 56.0544 45.8729 55.1377 45.3335 53.5143C44.9874 52.4719 44.9212 51.1485 45.1631 50.0031C45.5076 48.3722 46.4067 47.2542 47.6459 46.924C48.2078 46.805 48.7676 46.8264 49.2889 46.924ZM40.2388 45.001C39.9938 45.001 39.7543 45.0737 39.5506 45.2098C39.3468 45.3459 39.1881 45.5394 39.0943 45.7657C39.0005 45.9921 38.976 46.2412 39.0238 46.4815C39.0716 46.7218 39.1896 46.9425 39.3628 47.1158C39.5361 47.289 39.7568 47.407 39.9971 47.4548C40.2374 47.5026 40.4865 47.4781 40.7129 47.3843C40.9392 47.2906 41.1327 47.1318 41.2688 46.9281C41.405 46.7243 41.4776 46.4848 41.4776 46.2398C41.4776 45.9113 41.3471 45.5962 41.1148 45.3638C40.8825 45.1315 40.5674 45.001 40.2388 45.001ZM39.0813 48.7808V57.8788H41.3963V48.7808H39.0813ZM57.6753 57.8598C57.5927 57.8456 57.5104 57.8318 57.4284 57.8179H57.4284C56.5256 57.6657 55.662 57.5201 54.9196 57.0984C54.9088 57.0889 55.3977 55.2622 55.4197 55.2295C56.7213 55.6715 58.5535 56.2913 59.7888 55.7234C60.4623 55.3865 60.794 54.7637 60.6826 54.0449C60.5571 53.237 59.9977 52.7713 58.4619 52.1971C56.7488 51.5569 55.7452 50.7697 55.3342 49.7463C55.1322 49.243 55.0654 48.6024 55.1561 48.0427C55.4088 46.4862 56.6213 45.4035 58.4822 45.0725C59.0212 44.9766 60.1742 44.9757 60.7414 45.0706C61.5589 45.2073 62.4964 45.5165 62.4964 45.6494C62.4964 45.6984 62.0174 47.3873 61.9929 47.4246C61.1846 47.1045 60.278 46.8757 59.5109 46.8709C58.4256 46.8572 57.2489 47.5015 57.4565 48.6396C57.6035 49.3527 58.0586 49.7008 59.7336 50.3814C60.9674 50.8832 61.5594 51.2293 62.0667 51.7443C62.7719 52.4484 62.9948 53.2745 63 54.0933C63.0019 54.7753 62.9382 55.0935 62.6949 55.6201C62.1038 56.899 60.9015 57.6404 59.0882 57.8444C58.749 57.8823 57.9499 57.8909 57.6761 57.8598H57.6753Z" fill="white"/>
</svg>
