<svg width="102" height="102" viewBox="0 0 102 102" fill="none" xmlns="http://www.w3.org/2000/svg">
<circle cx="51" cy="51" r="51" fill="#6961F7"/>
<path fill-rule="evenodd" clip-rule="evenodd" d="M39.5033 74H35.0133C33.8225 74 32.6804 73.5259 31.8384 72.682C30.9964 71.8381 30.5233 70.6935 30.5233 69.5V59.78C30.5186 58.4508 30.1969 57.1419 29.5851 55.9625C28.9733 54.7831 28.0891 53.7674 27.0061 53L26.6619 52.745C26.4582 52.6078 26.2912 52.4225 26.1758 52.2053C26.0604 51.9882 26 51.746 26 51.5C26 51.254 26.0604 51.0118 26.1758 50.7947C26.2912 50.5775 26.4582 50.3922 26.6619 50.255C27.8449 49.5072 28.8196 48.4711 29.4949 47.2435C30.1701 46.0159 30.5239 44.6368 30.5233 43.235V33.41C30.5233 32.2404 30.9869 31.1187 31.8121 30.2917C32.6373 29.4646 33.7565 29 34.9235 29H39.5033C39.9003 29 40.281 29.158 40.5616 29.4393C40.8423 29.7206 41 30.1022 41 30.5C41 30.8978 40.8423 31.2794 40.5616 31.5607C40.281 31.842 39.9003 32 39.5033 32H34.9235C34.5504 32 34.1925 32.1486 33.9287 32.413C33.6649 32.6774 33.5166 33.036 33.5166 33.41V43.235C33.519 44.785 33.2026 46.3189 32.5871 47.7409C31.9717 49.163 31.0704 50.4426 29.9396 51.5C31.0687 52.5619 31.9687 53.8445 32.5839 55.2686C33.1992 56.6927 33.5166 58.2281 33.5166 59.78V69.5C33.5166 69.8978 33.6743 70.2794 33.955 70.5607C34.2357 70.842 34.6164 71 35.0133 71H39.5033C39.9003 71 40.281 71.158 40.5616 71.4393C40.8423 71.7206 41 72.1022 41 72.5C41 72.8978 40.8423 73.2794 40.5616 73.5607C40.281 73.842 39.9003 74 39.5033 74ZM66.9997 74H62.4999C62.1021 74 61.7206 73.842 61.4393 73.5607C61.158 73.2794 61 72.8978 61 72.5C61 72.1022 61.158 71.7206 61.4393 71.4393C61.7206 71.158 62.1021 71 62.4999 71H66.9997C67.3975 71 67.779 70.842 68.0603 70.5607C68.3416 70.2794 68.4996 69.8978 68.4996 69.5V59.81C68.4946 58.2529 68.8104 56.7116 69.4271 55.2819C70.0439 53.8522 70.9484 52.5648 72.0844 51.5C70.9548 50.446 70.0538 49.1713 69.4371 47.7547C68.8204 46.3381 68.5014 44.81 68.4996 43.265V33.41C68.4996 33.2248 68.4631 33.0415 68.3923 32.8704C68.3214 32.6993 68.2176 32.5439 68.0867 32.413C67.9557 32.282 67.8003 32.1782 67.6292 32.1073C67.4582 32.0365 67.2748 32 67.0897 32H62.4999C62.1021 32 61.7206 31.842 61.4393 31.5607C61.158 31.2794 61 30.8978 61 30.5C61 30.1022 61.158 29.7206 61.4393 29.4393C61.7206 29.158 62.1021 29 62.4999 29H67.0897C67.6688 29 68.2422 29.1141 68.7772 29.3357C69.3122 29.5573 69.7984 29.8822 70.2079 30.2917C70.6173 30.7012 70.9422 31.1873 71.1638 31.7224C71.3854 32.2574 71.4995 32.8309 71.4995 33.41V43.28C71.4981 44.6656 71.8432 46.0295 72.5033 47.2477C73.1635 48.4659 74.1177 49.4997 75.2793 50.255C75.4939 50.3856 75.6724 50.568 75.7982 50.7856C75.924 51.0031 75.9931 51.2488 75.9992 51.5C76.0071 51.7442 75.9552 51.9867 75.848 52.2063C75.7408 52.4259 75.5816 52.616 75.3843 52.76L75.0693 52.985C73.9695 53.7519 73.0708 54.7726 72.4493 55.9607C71.8279 57.1488 71.5021 58.4692 71.4995 59.81V69.5C71.4995 70.6935 71.0254 71.8381 70.1815 72.682C69.3376 73.5259 68.1931 74 66.9997 74ZM63.9226 51.3474C63.9226 49.7168 61.8805 48.1714 58.7497 47.2131C59.4722 44.0221 59.1511 41.4833 57.7362 40.6705C57.4114 40.4806 57.0318 40.3903 56.6173 40.3895V40.3845C55.2376 40.3845 53.4313 41.3679 51.605 43.0738C49.7787 41.378 47.9725 40.4046 46.5927 40.4046V40.4096C46.1712 40.4096 45.7899 40.4999 45.4588 40.6906C44.0489 41.5034 43.7328 44.0371 44.4603 47.2181C41.3396 48.1815 39.3075 49.7218 39.3075 51.3474C39.3075 52.978 41.3496 54.5234 44.4804 55.4817C43.7579 58.6727 44.079 61.2115 45.4939 62.0243C45.82 62.2149 46.2014 62.3053 46.6228 62.3053C48.0026 62.3053 49.8088 61.3219 51.6351 59.616C53.4614 61.3118 55.2677 62.2852 56.6474 62.2852C57.0689 62.2852 57.4502 62.1949 57.7814 62.0042C59.1912 61.1914 59.5073 58.6577 58.7798 55.4767C61.8906 54.5184 63.9226 52.973 63.9226 51.3474ZM52.4028 43.8565C54.0358 42.3387 55.5688 41.5061 56.6123 41.5034V41.5084C56.8431 41.5084 57.0288 41.5536 57.1843 41.6389C57.8667 42.0302 58.1627 43.5204 57.9319 45.437C57.8767 45.9086 57.7864 46.4053 57.676 46.9121C56.6926 46.6712 55.6189 46.4856 54.49 46.3652C53.8127 45.437 53.1102 44.5941 52.4028 43.8565ZM46.5927 41.5235C47.6313 41.5235 49.1716 42.3513 50.8073 43.8615C50.1048 44.5991 49.4024 45.437 48.7351 46.3652C47.6012 46.4856 46.5275 46.6712 45.5441 46.9171C45.4287 46.4154 45.3434 45.9287 45.2832 45.4621C45.0474 43.5454 45.3384 42.0553 46.0157 41.6589C46.1662 41.5686 46.3619 41.5285 46.5927 41.5285V41.5235ZM57.39 48.0008C57.2044 48.6481 56.9736 49.3154 56.7127 49.9827C56.507 49.5813 56.2912 49.1799 56.0554 48.7785C55.8246 48.3771 55.5788 47.9858 55.3329 47.6045C56.0454 47.7098 56.7327 47.8403 57.39 48.0008ZM55.0921 53.3443C54.7007 54.0216 54.2993 54.6639 53.8829 55.2609C53.1353 55.3261 52.3777 55.3613 51.6151 55.3613C50.8574 55.3613 50.0998 55.3261 49.3573 55.2659C48.9408 54.6689 48.5344 54.0317 48.1431 53.3593C47.7617 52.7021 47.4155 52.0348 47.0995 51.3624C47.4105 50.6901 47.7617 50.0178 48.138 49.3605C48.5294 48.6832 48.9308 48.041 49.3472 47.4439C50.0948 47.3787 50.8524 47.3436 51.6151 47.3436C52.3727 47.3436 53.1303 47.3787 53.8729 47.4389C54.2893 48.036 54.6957 48.6732 55.0871 49.3455C55.4684 50.0028 55.8146 50.6701 56.1307 51.3424C55.8146 52.0147 55.4684 52.687 55.0921 53.3443ZM56.7127 52.692C56.9836 53.3644 57.2144 54.0367 57.4051 54.6889C56.7478 54.8495 56.0554 54.985 55.3379 55.0903C55.5838 54.704 55.8296 54.3076 56.0604 53.9012C56.2912 53.4998 56.507 53.0934 56.7127 52.692ZM51.6251 58.0455C51.1585 57.5639 50.6919 57.027 50.2303 56.44C50.6818 56.4601 51.1434 56.4751 51.61 56.4751C52.0817 56.4751 52.5483 56.4651 53.0049 56.44C52.5533 57.027 52.0867 57.5639 51.6251 58.0455ZM47.8922 55.0903C47.1797 54.985 46.4924 54.8545 45.8351 54.694C46.0207 54.0467 46.2515 53.3794 46.5124 52.7121C46.7181 53.1135 46.9339 53.5149 47.1697 53.9163C47.4055 54.3177 47.6463 54.709 47.8922 55.0903ZM51.6 44.6493C52.0666 45.1309 52.5332 45.6678 52.9948 46.2548C52.5433 46.2347 52.0817 46.2197 51.6151 46.2197C51.1434 46.2197 50.6768 46.2297 50.2202 46.2548C50.6718 45.6678 51.1384 45.1309 51.6 44.6493ZM47.8872 47.6045C47.6413 47.9908 47.3955 48.3872 47.1647 48.7936C46.9339 49.195 46.7181 49.5963 46.5124 49.9977C46.2415 49.3254 46.0107 48.6531 45.82 48.0008C46.4773 47.8453 47.1697 47.7098 47.8872 47.6045ZM43.3465 53.8862C41.5703 53.1285 40.4214 52.1351 40.4214 51.3474C40.4214 50.5597 41.5703 49.5612 43.3465 48.8086C43.778 48.623 44.2496 48.4574 44.7363 48.3019C45.0223 49.2853 45.3986 50.3088 45.8652 51.3574C45.4036 52.401 45.0323 53.4196 44.7513 54.3979C44.2546 54.2424 43.783 54.0718 43.3465 53.8862ZM46.0458 61.0559C45.3635 60.6646 45.0674 59.1744 45.2982 57.2578C45.3534 56.7862 45.4437 56.2895 45.5541 55.7827C46.5375 56.0236 47.6112 56.2092 48.7401 56.3296C49.4175 57.2578 50.1199 58.1007 50.8273 58.8383C49.1917 60.3585 47.6564 61.1914 46.6128 61.1914C46.387 61.1864 46.1963 61.1412 46.0458 61.0559ZM57.9469 57.2327C58.1828 59.1494 57.8917 60.6395 57.2144 61.0359C57.0639 61.1262 56.8682 61.1663 56.6374 61.1663C55.5988 61.1663 54.0585 60.3385 52.4229 58.8282C53.1253 58.0907 53.8277 57.2528 54.495 56.3246C55.6289 56.2042 56.7026 56.0185 57.686 55.7727C57.8014 56.2794 57.8917 56.7661 57.9469 57.2327ZM59.8786 53.8862C59.4471 54.0718 58.9755 54.2374 58.4888 54.3929C58.2028 53.4095 57.8265 52.386 57.3599 51.3374C57.8215 50.2938 58.1928 49.2752 58.4738 48.2969C58.9705 48.4524 59.4421 48.623 59.8836 48.8086C61.6598 49.5662 62.8087 50.5597 62.8087 51.3474C62.8037 52.1351 61.6548 53.1336 59.8786 53.8862ZM51.6108 53.6406C52.8772 53.6406 53.9038 52.614 53.9038 51.3476C53.9038 50.0813 52.8772 49.0547 51.6108 49.0547C50.3445 49.0547 49.3179 50.0813 49.3179 51.3476C49.3179 52.614 50.3445 53.6406 51.6108 53.6406Z" fill="white"/>
</svg>
